<svg width="64" height="64" viewBox="0 0 64 64" fill="none" xmlns="http://www.w3.org/2000/svg">
<rect x="0.5" y="0.5" width="63" height="63" rx="5.5" fill="white" stroke="black"/>
<path d="M29.505 29.6952L29.1592 30.041L29.4972 30.3944L32.7927 33.8397V42.8171H30.6707V35.5122V35.2853L30.5 35.1359L25.5049 30.7652L25.4907 30.7528L25.4756 30.7415C25.0134 30.3948 24.739 29.787 24.739 28.9561C24.739 28.3124 24.9955 27.6579 25.5292 27.1243L29.8999 22.7536L29.925 22.7284L29.9463 22.7C30.293 22.2378 30.9008 21.9634 31.7317 21.9634C32.5286 21.9634 33.1964 22.2196 33.8957 22.7736L36.8416 25.7194C38.2289 27.1067 40.0579 28.0693 42.3146 28.1937V30.319C39.4069 30.1993 37.0439 29.0344 35.2072 27.1977L33.9584 25.9489L33.6049 25.5953L33.2513 25.9489L29.505 29.6952ZM39.8171 19.122C39.8171 20.5629 38.6361 21.7439 37.1951 21.7439C35.7542 21.7439 34.5732 20.5629 34.5732 19.122C34.5732 17.681 35.7542 16.5 37.1951 16.5C38.6361 16.5 39.8171 17.681 39.8171 19.122ZM13.5 40.1951C13.5 36.1005 16.7103 32.8902 20.8049 32.8902C24.8995 32.8902 28.1098 36.1005 28.1098 40.1951C28.1098 44.2897 24.8995 47.5 20.8049 47.5C16.7103 47.5 13.5 44.2897 13.5 40.1951ZM14.8415 40.1951C14.8415 43.4371 17.5629 46.1585 20.8049 46.1585C24.0469 46.1585 26.7683 43.4371 26.7683 40.1951C26.7683 36.9531 24.0469 34.2317 20.8049 34.2317C17.5629 34.2317 14.8415 36.9531 14.8415 40.1951ZM35.3537 40.1951C35.3537 36.1005 38.5639 32.8902 42.6585 32.8902C46.7531 32.8902 49.9634 36.1005 49.9634 40.1951C49.9634 44.2897 46.7531 47.5 42.6585 47.5C38.5639 47.5 35.3537 44.2897 35.3537 40.1951ZM36.6951 40.1951C36.6951 43.4371 39.4165 46.1585 42.6585 46.1585C45.9005 46.1585 48.6219 43.4371 48.6219 40.1951C48.6219 36.9531 45.9005 34.2317 42.6585 34.2317C39.4165 34.2317 36.6951 36.9531 36.6951 40.1951Z" fill="#FF0101" stroke="black"/>
</svg>
